<svg width="24" height="24" viewBox="0 0 24 24" fill="none" xmlns="http://www.w3.org/2000/svg">
  <path d="M5 13L3 3H7L8 13M5 13V19C5 20.1046 5.89543 21 7 21H9C10.1046 21 11 20.1046 11 19V13M5 13H11M11 13L12 3H16L14 13M11 13V19C11 20.1046 11.8954 21 13 21H15C16.1046 21 17 20.1046 17 19V13M14 13H19L21 3H17L14 13M14 13V19C14 20.1046 14.8954 21 16 21H18C19.1046 21 20 20.1046 20 19V13" stroke="currentColor" stroke-width="2" stroke-linecap="round" stroke-linejoin="round"/>
  <path d="M7.5 7.5L8.5 8.5M12.5 7.5L13.5 8.5M17.5 7.5L18.5 8.5" stroke="currentColor" stroke-width="2" stroke-linecap="round"/>
</svg>
